# File created by Blade
# Date/Time:  Tue Apr 07 21:25:43 2015
#---------------------------------------------------------
:version 1.10
:name HOM
:units
  mass 1.0
  length 1.000000
  angle deg
:documentation
     Acclaim Skeleton File
:root
   axis xyz
   order TX TY TZ RX RY RZ
   position 0.000000 0.000000 0.000000
   orientation 0 0 0
:bonedata
   begin
      id 1
      name Spine_dum
      direction 0.000000 1.000000 0.000000
      length 4.885285
      axis 0.0 0.0 0.0 xyz
   end
   begin
      id 2
      name LeftUpLeg_dum
      direction 1.000000 0.000000 0.000000
      length 2.672193
      axis 0.0 0.0 0.0 xyz
   end
   begin
      id 3
      name RightUpLeg_dum
      direction -1.000000 0.000000 0.000000
      length 2.672193
      axis 0.0 0.0 0.0 xyz
   end
   begin
      id 4
      name Spine
      direction 0.000000 1.000000 0.000000
      length 0.000000
      axis 0.0 0.0 0.0 xyz
      dof rx ry rz
   end
   begin
      id 5
      name Spine_dum1
      direction 0.000000 1.000000 0.000000
      length 16.494159
      axis 0.0 0.0 0.0 xyz
   end
   begin
      id 6
      name Spine_dum2
      direction 0.000000 1.000000 0.000000
      length 10.663448
      axis 0.0 0.0 0.0 xyz
   end
   begin
      id 7
      name Spine_dum3
      direction 0.000000 1.000000 0.000000
      length 10.663448
      axis 0.0 0.0 0.0 xyz
   end
   begin
      id 8
      name Head
      direction 0.000000 1.000000 0.000000
      length 4.527550
      axis 0.0 0.0 0.0 xyz
      dof rx ry rz
   end
   begin
      id 9
      name LeftShoulder
      direction 1.000000 0.000000 0.000000
      length 7.531907
      axis 0.0 0.0 -90.0 xyz
      dof rx ry rz
   end
   begin
      id 10
      name LeftArm
      direction 1.000000 0.000000 0.000000
      length 10.229199
      axis 0.0 0.0 -90.0 xyz
      dof rx ry rz
   end
   begin
      id 11
      name LeftForeArm
      direction 1.000000 0.000000 0.000000
      length 8.673495
      axis 0.0 0.0 -90.0 xyz
      dof ry rz rx
   end
   begin
      id 12
      name LeftHand
      direction 0.000000 0.000000 0.000000
      length 0.000000
      axis 0.0 0.0 -90.0 xyz
      dof rx ry rz
   end
   begin
      id 13
      name LeftHand_dum1
      direction 0.000000 0.000000 0.000000
      length 0.000000
      axis 0.0 0.0 -90.0 xyz
   end
   begin
      id 14
      name LeftHand_dum2
      direction 1.000000 0.000000 0.000000
      length 3.937000
      axis 0.0 0.0 -90.0 xyz
   end
   begin
      id 15
      name LeftHandThumb1
      direction 0.000000 0.000000 1.000000
      length 3.937000
      axis 0.0 0.0 -90.0 xyz
      dof rx rz ry
   end
   begin
      id 16
      name RightShoulder
      direction -1.000000 0.000000 0.000000
      length 7.531907
      axis 0.0 0.0 90.0 xyz
      dof rx ry rz
   end
   begin
      id 17
      name RightArm
      direction -1.000000 0.000000 0.000000
      length 10.229199
      axis 0.0 0.0 90.0 xyz
      dof rx ry rz
   end
   begin
      id 18
      name RightForeArm
      direction -1.000000 0.000000 0.000000
      length 8.673495
      axis 0.0 0.0 90.0 xyz
      dof ry rz rx
   end
   begin
      id 19
      name RightHand
      direction 0.000000 0.000000 0.000000
      length 0.000000
      axis 0.0 0.0 90.0 xyz
      dof rx ry rz
   end
   begin
      id 20
      name RightHand_dum1
      direction 0.000000 0.000000 0.000000
      length 0.000000
      axis 0.0 0.0 90.0 xyz
   end
   begin
      id 21
      name RightHand_dum2
      direction -1.000000 0.000000 0.000000
      length 3.937000
      axis 0.0 0.0 90.0 xyz
   end
   begin
      id 22
      name RightHandThumb1
      direction 0.000000 0.000000 1.000000
      length 3.937000
      axis 0.0 0.0 90.0 xyz
      dof rx rz ry
   end
   begin
      id 23
      name LeftUpLeg
      direction 0.000000 -1.000000 0.000000
      length 16.263388
      axis 0.0 0.0 0.0 xyz
      dof rx ry rz
   end
   begin
      id 24
      name LeftLeg
      direction 0.000000 -1.000000 0.000000
      length 14.328163
      axis 0.0 0.0 0.0 xyz
      dof rx ry rz
   end
   begin
      id 25
      name LeftFoot
      direction 0.000000 -0.258819 0.965926
      length 5.031290
      axis 15.0 0.0 0.0 xyz
      dof rx ry rz
   end
   begin
      id 26
      name LeftToeBase
      direction 0.000000 0.000000 1.000000
      length 2.952750
      axis 0.0 0.0 0.0 xyz
      dof rx ry rz
   end
   begin
      id 27
      name RightUpLeg
      direction 0.000000 -1.000000 0.000000
      length 16.263388
      axis 0.0 0.0 0.0 xyz
      dof rx ry rz
   end
   begin
      id 28
      name RightLeg
      direction 0.000000 -1.000000 0.000000
      length 14.328163
      axis 0.0 0.0 0.0 xyz
      dof rx ry rz
   end
   begin
      id 29
      name RightFoot
      direction 0.000000 -0.258819 0.965926
      length 5.031290
      axis 15.0 0.0 0.0 xyz
      dof rx ry rz
   end
   begin
      id 30
      name RightToeBase
      direction 0.000000 0.000000 1.000000
      length 2.952750
      axis 0.0 0.0 0.0 xyz
      dof rx ry rz
   end
:hierarchy
   begin
      root Spine_dum LeftUpLeg_dum RightUpLeg_dum
      Spine_dum Spine
      LeftUpLeg_dum LeftUpLeg
      RightUpLeg_dum RightUpLeg
      Spine Spine_dum1 Spine_dum2 Spine_dum3
      Spine_dum1 Head
      Spine_dum2 LeftShoulder
      Spine_dum3 RightShoulder
      LeftShoulder LeftArm
      LeftArm LeftForeArm
      LeftForeArm LeftHand
      LeftHand LeftHand_dum1 LeftHand_dum2
      LeftHand_dum1 LeftHandThumb1
      RightShoulder RightArm
      RightArm RightForeArm
      RightForeArm RightHand
      RightHand RightHand_dum1 RightHand_dum2
      RightHand_dum1 RightHandThumb1
      LeftUpLeg LeftLeg
      LeftLeg LeftFoot
      LeftFoot LeftToeBase
      RightUpLeg RightLeg
      RightLeg RightFoot
      RightFoot RightToeBase
   end

# File created by Blade
# Date/Time:  Tue Apr 07 21:25:57 2015
# Frame Rate: 120.000 fps
#------------------------------------------------------
:FULLY-SPECIFIED
:DEGREES
154
root 16.720247 31.939668 3.855661 8.596494 -48.235977 3.733616
Spine -3.385278 -6.103070 -4.086262
Head 26.945809 -9.660822 2.967500
LeftShoulder -16.868410 49.702461 7.828339
LeftArm 55.392875 9.034394 -77.025941
LeftForeArm -2.660389 -0.000000 5.335719
LeftHand 4.949365 -0.000000 0.773262
LeftHandThumb1 -26.253704 0.000000 33.147579
RightShoulder -5.970574 -7.431442 -15.482343
RightArm 18.252267 -11.898487 86.397487
RightForeArm 2.262478 0.000000 10.310826
RightHand 2.732847 -0.000000 3.115939
RightHandThumb1 -24.326973 -0.000000 -32.862282
LeftUpLeg -3.476327 -5.689750 2.520314
LeftLeg 6.203601 -0.000000 -0.000000
LeftFoot -14.366121 9.715672 -18.310589
LeftToeBase -15.065667 -0.000000 0.000000
RightUpLeg -27.440779 -1.435992 -21.004989
RightLeg 1.798590 -0.000000 -0.000000
RightFoot 25.843815 -12.222494 3.482898
RightToeBase -3.341042 -0.000000 0.000000
155
root 16.958103 31.959342 3.873400 8.717024 -49.193601 3.666155
Spine -3.376906 -6.005943 -4.054630
Head 26.737321 -9.600762 2.942391
LeftShoulder -16.799123 49.620736 7.831201
LeftArm 55.549707 9.180931 -76.868757
LeftForeArm -2.950481 -0.000000 5.189373
LeftHand 5.144167 -0.000000 0.495654
LeftHandThumb1 -26.253704 0.000000 33.147579
RightShoulder -5.872373 -7.432244 -15.414048
RightArm 18.340264 -12.072633 86.510532
RightForeArm 2.626347 -0.000000 10.219753
RightHand 2.730357 -0.000000 3.076224
RightHandThumb1 -24.326973 -0.000000 -32.862282
LeftUpLeg -3.728029 -5.302701 2.105548
LeftLeg 6.229795 -0.000000 -0.000000
LeftFoot -14.552666 10.458119 -17.796605
LeftToeBase -14.741681 -0.000000 0.000000
RightUpLeg -27.989784 -1.877772 -20.262368
RightLeg 1.408232 -0.000000 -0.000000
RightFoot 26.189244 -12.430233 2.684048
RightToeBase -2.320148 -0.000000 0.000000
156
root 17.182166 31.982433 3.889785 8.799225 -50.184020 3.567828
Spine -3.316721 -5.873285 -4.036955
Head 26.582000 -9.527698 2.952957
LeftShoulder -16.657323 49.519740 7.907269
LeftArm 55.585481 9.299954 -76.805767
LeftForeArm -3.164295 0.000000 5.171731
LeftHand 5.204649 -0.000000 0.173078
LeftHandThumb1 -26.253704 0.000000 33.147579
RightShoulder -5.769088 -7.445407 -15.297582
RightArm 18.426669 -12.274125 86.591387
RightForeArm 2.947167 0.000000 10.129662
RightHand 2.566971 -0.000000 3.442680
RightHandThumb1 -24.326973 -0.000000 -32.862282
LeftUpLeg -3.897467 -4.919282 1.731489
LeftLeg 6.213870 -0.000000 -0.000000
LeftFoot -14.658883 11.192685 -17.364713
LeftToeBase -14.564805 -0.000000 0.000000
RightUpLeg -28.479921 -2.192229 -19.468542
RightLeg 1.152370 -0.000000 -0.000000
RightFoot 26.126304 -12.704005 1.807896
RightToeBase -1.172281 -0.000000 0.000000
157
root 17.376619 32.010097 3.903943 9.028807 -51.167342 3.160289
Spine -3.207334 -5.669321 -3.861463
Head 26.523364 -9.530909 3.025950
LeftShoulder -16.486355 49.440938 7.996890
LeftArm 55.622167 9.520512 -76.612246
LeftForeArm -3.358862 0.000000 5.201285
LeftHand 5.213179 0.000000 -0.063465
LeftHandThumb1 -26.253704 0.000000 33.147579
RightShoulder -5.680493 -7.487419 -15.108618
RightArm 18.467833 -12.391672 86.647667
RightForeArm 3.373407 -0.000000 10.049796
RightHand 2.526667 -0.000000 3.497646
RightHandThumb1 -24.326973 -0.000000 -32.862282
LeftUpLeg -3.944721 -4.715627 1.604009
LeftLeg 6.202695 -0.000000 -0.000000
LeftFoot -14.834350 11.975335 -17.137131
LeftToeBase -14.347927 -0.000000 0.000000
RightUpLeg -28.819369 -2.357956 -18.433410
RightLeg 1.001537 -0.000000 -0.000000
RightFoot 25.610398 -13.319206 1.206017
RightToeBase 0.318339 -0.000000 -0.000000
158
root 17.583427 32.037637 3.920354 9.158482 -52.264305 2.961803
Spine -3.134001 -5.419818 -3.820588
Head 26.404512 -9.478052 3.110848
LeftShoulder -16.394785 49.347990 8.046252
LeftArm 55.672404 9.807602 -76.387961
LeftForeArm -3.738088 0.000000 5.244055
LeftHand 5.219185 -0.000000 -0.338626
LeftHandThumb1 -26.253704 0.000000 33.147579
RightShoulder -5.566648 -7.495119 -14.979166
RightArm 18.540127 -12.607204 86.713934
RightForeArm 4.072483 -0.000000 9.916537
RightHand 2.762889 0.000000 3.473115
RightHandThumb1 -24.326973 -0.000000 -32.862282
LeftUpLeg -4.081833 -4.464810 1.315710
LeftLeg 6.225013 -0.000000 -0.000000
LeftFoot -14.959840 12.823084 -16.885347
LeftToeBase -14.219036 -0.000000 0.000000
RightUpLeg -29.315615 -2.389492 -17.583444
RightLeg 1.124983 -0.000000 -0.000000
RightFoot 24.541693 -14.296276 1.089029
RightToeBase 0.543370 -0.000000 -0.000000
159
root 17.784272 32.068386 3.935802 9.313544 -53.362888 2.789538
Spine -3.122344 -5.152990 -3.808450
Head 26.324274 -9.417328 3.249674
LeftShoulder -16.271010 49.263648 8.148913
LeftArm 55.728845 10.133375 -76.194334
LeftForeArm -4.051811 -0.000000 5.249168
LeftHand 5.285029 -0.000000 -0.919594
LeftHandThumb1 -26.253704 0.000000 33.147579
RightShoulder -5.463852 -7.539773 -14.849939
RightArm 18.591833 -12.804762 86.801152
RightForeArm 4.730023 -0.000000 9.819919
RightHand 2.987920 -0.000000 2.832205
RightHandThumb1 -24.326973 -0.000000 -32.862282
LeftUpLeg -4.272177 -3.872117 1.017014
LeftLeg 6.236645 -0.000000 -0.000000
LeftFoot -14.918149 13.373917 -16.592030
LeftToeBase -14.337240 -0.000000 0.000000
RightUpLeg -29.828102 -2.360281 -16.754888
RightLeg 1.380019 -0.000000 -0.000000
RightFoot 23.144236 -15.367177 1.199009
RightToeBase 0.887716 -0.000000 -0.000000
160
root 17.973419 32.101126 3.951364 9.513764 -54.444137 2.501219
Spine -3.056026 -4.881554 -3.728822
Head 26.242163 -9.389064 3.386748
LeftShoulder -16.166487 49.133058 8.231088
LeftArm 55.745143 10.469622 -76.053238
LeftForeArm -4.468421 -0.000000 5.253786
LeftHand 5.259417 0.000000 -1.305723
LeftHandThumb1 -26.253704 0.000000 33.147579
RightShoulder -5.397445 -7.547077 -14.748608
RightArm 18.619422 -13.082813 86.894103
RightForeArm 5.035716 -0.000000 9.718749
RightHand 2.977097 0.000000 2.949688
RightHandThumb1 -24.326973 -0.000000 -32.862282
LeftUpLeg -4.432254 -3.320483 0.794318
LeftLeg 6.311662 -0.000000 -0.000000
LeftFoot -14.941760 13.929156 -16.368696
LeftToeBase -14.150589 -0.000000 0.000000
RightUpLeg -30.246366 -2.273414 -15.853225
RightLeg 1.736062 -0.000000 -0.000000
RightFoot 21.469042 -16.410961 1.653240
RightToeBase 1.599746 -0.000000 -0.000000
161
root 18.158407 32.134238 3.951965 9.942306 -55.520985 2.033836
Spine -3.067718 -4.618754 -3.557459
Head 26.152004 -9.296642 3.537823
LeftShoulder -16.019411 48.993006 8.378229
LeftArm 55.691091 10.690749 -76.149491
LeftForeArm -4.843052 0.000000 5.217771
LeftHand 5.466688 -0.000000 -2.212012
LeftHandThumb1 -26.253704 0.000000 33.147579
RightShoulder -5.311800 -7.573568 -14.682196
RightArm 18.668877 -13.336329 87.040322
RightForeArm 5.445959 -0.000000 9.618286
RightHand 2.946878 -0.000000 3.014644
RightHandThumb1 -24.326973 -0.000000 -32.862282
LeftUpLeg -4.725563 -2.852730 0.708939
LeftLeg 6.476456 -0.000000 -0.000000
LeftFoot -15.024380 14.529665 -16.232163
LeftToeBase -13.948624 -0.000000 0.000000
RightUpLeg -30.752069 -1.972705 -14.937593
RightLeg 2.296736 -0.000000 -0.000000
RightFoot 19.608158 -17.656412 2.496149
RightToeBase 1.450863 -0.000000 -0.000000
162
root 18.338863 32.167796 3.964162 10.244569 -56.575164 1.621601
Spine -3.000160 -4.401000 -3.406174
Head 26.125547 -9.236007 3.673070
LeftShoulder -15.925195 48.901377 8.466152
LeftArm 55.706962 11.064672 -76.090190
LeftForeArm -5.695741 -0.000000 5.221028
LeftHand 5.466517 -0.000000 -2.721306
LeftHandThumb1 -26.253704 0.000000 33.147579
RightShoulder -5.216519 -7.570451 -14.676351
RightArm 18.730910 -13.669860 87.183531
RightForeArm 5.876694 -0.000000 9.450285
RightHand 3.271472 -0.000000 2.746702
RightHandThumb1 -24.326973 -0.000000 -32.862282
LeftUpLeg -4.901040 -2.418809 0.566878
LeftLeg 6.592012 -0.000000 -0.000000
LeftFoot -15.061554 15.154532 -16.104497
LeftToeBase -13.864304 -0.000000 0.000000
RightUpLeg -31.151044 -1.831169 -13.978442
RightLeg 3.022588 -0.000000 -0.000000
RightFoot 17.717802 -18.616040 3.473864
RightToeBase 0.787071 -0.000000 -0.000000
163
root 18.507557 32.201158 3.983033 10.528175 -57.589170 1.170311
Spine -2.894848 -4.264198 -3.214035
Head 26.134544 -9.120774 3.748681
LeftShoulder -15.866343 48.828802 8.485660
LeftArm 55.630622 11.264856 -76.244531
LeftForeArm -6.229778 -0.000000 5.237909
LeftHand 5.596795 0.000000 -3.691756
LeftHandThumb1 -26.253704 0.000000 33.147579
RightShoulder -5.082572 -7.533799 -14.715162
RightArm 18.743614 -14.122975 87.315673
RightForeArm 6.035646 0.000000 9.374025
RightHand 3.149390 0.000000 3.094903
RightHandThumb1 -24.326973 -0.000000 -32.862282
LeftUpLeg -5.013633 -2.010768 0.440560
LeftLeg 6.719902 -0.000000 -0.000000
LeftFoot -15.076187 15.790077 -15.967624
LeftToeBase -13.772266 -0.000000 0.000000
RightUpLeg -31.416766 -1.752630 -12.966115
RightLeg 3.823820 -0.000000 -0.000000
RightFoot 15.913620 -19.311123 4.414011
RightToeBase 0.199240 -0.000000 -0.000000
